<svg width="40" height="40" viewBox="0 0 40 40" fill="none" xmlns="http://www.w3.org/2000/svg">
<path d="M36.6666 20H3.33331" stroke="#74B2FD" stroke-width="2.5" stroke-linecap="round" stroke-linejoin="round"/>
<path d="M9.08331 8.51663L3.33331 20V30C3.33331 30.884 3.6845 31.7319 4.30962 32.357C4.93474 32.9821 5.78259 33.3333 6.66665 33.3333H33.3333C34.2174 33.3333 35.0652 32.9821 35.6903 32.357C36.3155 31.7319 36.6666 30.884 36.6666 30V20L30.9166 8.51663C30.6407 7.96127 30.2153 7.49391 29.6882 7.16709C29.1612 6.84027 28.5535 6.66696 27.9333 6.66663H12.0666C11.4465 6.66696 10.8388 6.84027 10.3117 7.16709C9.78469 7.49391 9.35928 7.96127 9.08331 8.51663V8.51663Z" stroke="#74B2FD" stroke-width="2.5" stroke-linecap="round" stroke-linejoin="round"/>
<path d="M10 26.6666H10.0167" stroke="#74B2FD" stroke-width="2.5" stroke-linecap="round" stroke-linejoin="round"/>
<path d="M16.6667 26.6666H16.6834" stroke="#74B2FD" stroke-width="2.5" stroke-linecap="round" stroke-linejoin="round"/>
</svg>
