<svg width="40" height="40" viewBox="0 0 40 40" fill="none" xmlns="http://www.w3.org/2000/svg">
<path d="M30 6.66663H10C8.15907 6.66663 6.66669 8.15901 6.66669 9.99996V30C6.66669 31.8409 8.15907 33.3333 10 33.3333H30C31.841 33.3333 33.3334 31.8409 33.3334 30V9.99996C33.3334 8.15901 31.841 6.66663 30 6.66663Z" stroke="#74B2FD" stroke-width="2.5" stroke-linecap="round" stroke-linejoin="round"/>
<path d="M25 15H15V25H25V15Z" stroke="#74B2FD" stroke-width="2.5" stroke-linecap="round" stroke-linejoin="round"/>
<path d="M15 1.66663V6.66663" stroke="#74B2FD" stroke-width="2.5" stroke-linecap="round" stroke-linejoin="round"/>
<path d="M25 1.66663V6.66663" stroke="#74B2FD" stroke-width="2.5" stroke-linecap="round" stroke-linejoin="round"/>
<path d="M15 33.3334V38.3334" stroke="#74B2FD" stroke-width="2.5" stroke-linecap="round" stroke-linejoin="round"/>
<path d="M25 33.3334V38.3334" stroke="#74B2FD" stroke-width="2.5" stroke-linecap="round" stroke-linejoin="round"/>
<path d="M33.3333 15H38.3333" stroke="#74B2FD" stroke-width="2.5" stroke-linecap="round" stroke-linejoin="round"/>
<path d="M33.3333 23.3334H38.3333" stroke="#74B2FD" stroke-width="2.5" stroke-linecap="round" stroke-linejoin="round"/>
<path d="M1.66669 15H6.66669" stroke="#74B2FD" stroke-width="2.5" stroke-linecap="round" stroke-linejoin="round"/>
<path d="M1.66669 23.3334H6.66669" stroke="#74B2FD" stroke-width="2.5" stroke-linecap="round" stroke-linejoin="round"/>
</svg>
