<svg width="64" height="64" viewBox="0 0 64 64" fill="none" xmlns="http://www.w3.org/2000/svg">
<circle cx="32" cy="32" r="32" fill="#242A3F"/>
<path d="M36.7621 39.9044C35.6789 39.6656 35.176 38.4052 35.795 37.4808C36.6315 36.2315 37.2639 34.8558 37.6682 33.406L37.6745 33.3832L37.5032 33.3832C35.0197 33.3832 33.0064 31.3606 33.0064 28.8655C33.0064 26.3705 35.021 24.3478 37.5045 24.3478C39.9866 24.3478 42 26.3693 42 28.8629C42 31.8293 41.2616 34.7486 39.8521 37.3552L38.9172 39.0839C38.5464 39.7696 37.769 40.1264 37.0104 39.9591L36.7621 39.9044Z" fill="#0A57FB"/>
<path d="M25.7557 39.9044C24.6725 39.6656 24.1696 38.4052 24.7885 37.4808C25.6251 36.2315 26.2574 34.8558 26.6618 33.406L26.6681 33.3832L26.4968 33.3832C24.0133 33.3832 22 31.3606 22 28.8655C22 26.3705 24.0146 24.3478 26.4981 24.3478C28.9802 24.3478 30.9936 26.3693 30.9936 28.8629C30.9936 31.8293 30.2552 34.7486 28.8456 37.3552L27.9108 39.0839C27.54 39.7696 26.7626 40.1264 26.0039 39.9591L25.7557 39.9044Z" fill="#0A57FB"/>
</svg>
