<svg width="20" height="16" viewBox="0 0 20 16" fill="none" xmlns="http://www.w3.org/2000/svg">
<path d="M14.7621 15.9044C13.6789 15.6656 13.176 14.4052 13.795 13.4808C14.6315 12.2315 15.2639 10.8558 15.6682 9.40596L15.6745 9.38322L15.5032 9.38322C13.0197 9.38322 11.0064 7.36058 11.0064 4.86552C11.0064 2.37047 13.021 0.347828 15.5045 0.347828C17.9866 0.347829 20 2.36929 20 4.86289C20 7.82931 19.2616 10.7486 17.8521 13.3552L16.9172 15.0839C16.5464 15.7696 15.769 16.1264 15.0104 15.9591L14.7621 15.9044Z" fill="#0A57FB"/>
<path d="M3.7557 15.9044C2.67252 15.6656 2.16956 14.4052 2.78853 13.4808C3.62506 12.2315 4.25744 10.8558 4.66175 9.40596L4.66809 9.38322L4.49679 9.38322C2.01328 9.38322 7.55282e-07 7.36058 9.73407e-07 4.86552C1.19153e-06 2.37047 2.01459 0.347827 4.4981 0.347828C6.98016 0.347828 8.99358 2.36929 8.99358 4.86289C8.99357 7.82931 8.2552 10.7486 6.84563 13.3552L5.91081 15.0839C5.54 15.7696 4.76262 16.1264 4.00393 15.9591L3.7557 15.9044Z" fill="#0A57FB"/>
</svg>
